<?xml version="1.0" encoding="UTF-8"?>
<svg version="1.1" xmlns="http://www.w3.org/2000/svg" width="830" height="600">
<path d="M0 0 C273.9 0 547.8 0 830 0 C830 198 830 396 830 600 C556.1 600 282.2 600 0 600 C0 402 0 204 0 0 Z " fill="#FEFEFE" transform="translate(0,0)"/>
<path d="M0 0 C1.26546662 -0.00930366 1.26546662 -0.00930366 2.55649823 -0.01879528 C5.40851111 -0.03725086 8.26036737 -0.04136588 11.11243439 -0.04557896 C13.16801158 -0.05575221 15.22358477 -0.06676607 17.27915335 -0.07855231 C22.94787049 -0.10837061 28.61656608 -0.12542716 34.28533959 -0.14029014 C39.14302251 -0.15464751 44.00066065 -0.17641163 48.85831475 -0.1982656 C65.56765332 -0.27335212 82.27701918 -0.32194865 98.98646429 -0.36456371 C101.76481539 -0.37169758 104.54316589 -0.37904897 107.32151643 -0.3863942 C133.16416517 -0.45459474 159.00683287 -0.51439098 184.8495453 -0.55214122 C191.59720961 -0.56199964 198.34487337 -0.57222502 205.09253693 -0.58258152 C206.21091159 -0.58428266 206.21091159 -0.58428266 207.35187968 -0.58601817 C231.49866663 -0.62307619 255.64498282 -0.70744313 279.79153436 -0.81852131 C304.62545264 -0.93255262 329.45911964 -1.00413892 354.29330428 -1.02067017 C357.80573297 -1.02301531 361.31816116 -1.02581357 364.83058929 -1.02887249 C365.86744607 -1.02974774 365.86744607 -1.02974774 366.92524945 -1.03064067 C378.02290111 -1.04118766 389.11991803 -1.09559704 400.21733093 -1.16633014 C411.38926554 -1.23650859 422.56050938 -1.25733167 433.73270559 -1.23213559 C439.7792332 -1.21986982 445.82379171 -1.22833577 451.8700161 -1.29417896 C457.41707876 -1.35409455 462.96079375 -1.35279321 468.50794178 -1.30485148 C470.50351765 -1.29802426 472.49932249 -1.31274282 474.49451536 -1.35243022 C489.41119531 -1.63096817 498.16277073 2.33750015 509.76101655 11.63542181 C513.07140336 14.2334096 516.55673984 16.56057619 520.04712677 18.90740871 C521.35408768 19.80443263 522.66019944 20.70269624 523.96509552 21.60272121 C527.9291478 24.3304355 531.89431386 27.05652747 535.85962677 29.78240871 C537.19296485 30.69906848 538.52629819 31.61573514 539.85962677 32.53240871 C540.51962677 32.98615871 541.17962677 33.43990871 541.85962677 33.90740871 C565.1929601 49.94907538 588.52629344 65.99074205 611.85962677 82.03240871 C612.84986847 82.71315456 612.84986847 82.71315456 613.86011505 83.40765285 C615.1919348 84.32333991 616.52364075 85.23919249 617.85523224 86.15521145 C621.21080457 88.46324451 624.56837415 90.76826731 627.92993927 93.06756496 C636.64855296 99.0365103 645.28612741 105.10680995 653.85962677 111.28240871 C649.75894607 116.16832615 645.51141537 120.79044635 640.98462677 125.28240871 C640.05565582 126.20847927 640.05565582 126.20847927 639.10791779 127.15325832 C635.5135937 130.71364256 631.84535396 134.11382638 627.98072052 137.38006496 C624.98823456 140.06393358 622.18529418 142.9247496 619.35962677 145.78240871 C615.96956296 149.21085422 612.6076872 152.6050157 608.92212677 155.71990871 C605.01692698 159.02813529 601.45681751 162.64754613 597.85962677 166.28240871 C593.71454587 170.47085388 589.55046315 174.50911591 585.04712677 178.31365871 C581.2066604 181.77007844 577.62808055 185.49543467 573.99463654 189.1669302 C570.44504859 192.73939104 566.82804798 196.12845272 562.98072052 199.38006496 C559.98823456 202.06393358 557.18529418 204.9247496 554.35962677 207.78240871 C550.96956296 211.21085422 547.6076872 214.6050157 543.92212677 217.71990871 C539.34689642 221.5957408 535.21121119 225.90616486 530.99707794 230.16448879 C527.43131537 233.75324701 523.81347787 237.17801966 519.92212677 240.41522121 C518.15285567 242.01694771 516.54619844 243.65495578 514.92212677 245.39959621 C514.13346222 246.23370022 514.13346222 246.23370022 513.32886505 247.08465481 C512.28566137 248.19559484 511.25718997 249.32060165 510.24585724 250.46063137 C507.93219617 252.90769831 506.51559075 254.22944845 503.10181427 254.50506496 C498.33732474 252.70833578 494.33733135 250.03130003 490.10962677 247.21990871 C488.14084307 245.93801066 486.17073435 244.65814587 484.19947052 243.38006496 C482.65042023 242.37290432 482.65042023 242.37290432 481.07007599 241.345397 C475.65539592 237.86600182 470.16299314 234.51477824 464.67212677 231.15740871 C456.40186477 226.08771999 448.16103947 220.97819953 439.96900177 215.78314114 C430.65231952 209.87589637 421.28953515 204.04262238 411.93140411 198.20135403 C408.92288883 196.32192864 405.91631698 194.43943675 402.91040802 192.55584621 C391.38345621 185.33558407 379.82198016 178.17494384 368.23047638 171.0587759 C361.03919878 166.63853367 353.88509877 162.16442603 346.75757599 157.642272 C341.08564896 154.04677297 335.38568453 150.49883946 329.67212677 146.96990871 C321.74373138 142.07194877 313.82728433 137.15529899 305.92212677 132.21990871 C304.90932648 131.58850979 303.89652618 130.95711086 302.85303497 130.30657864 C301.89743683 129.709501 300.94183868 129.11242336 299.95728302 128.49725246 C299.11689484 127.97252346 298.27650665 127.44779446 297.41065216 126.90716457 C294.85962677 125.28240871 294.85962677 125.28240871 292.25748444 123.22114468 C287.95226735 120.76469122 284.80890376 120.66447022 279.94287872 120.63787746 C279.06544006 120.61801785 278.1880014 120.59815823 277.28397369 120.5776968 C274.38848853 120.51942209 271.49388275 120.49202651 268.59790802 120.46990871 C267.60109701 120.45859921 266.604286 120.4472897 265.5772686 120.43563747 C260.29040446 120.37571832 255.00397451 120.33878339 249.7168045 120.32147121 C244.30485618 120.29967163 238.89700614 120.2038741 233.48633289 120.0895834 C229.28464307 120.01430346 225.08389647 119.9942149 220.88158989 119.98812771 C218.89027709 119.97616874 216.89896575 119.94456068 214.9083271 119.89138699 C199.97199322 119.52125486 190.75700328 122.91814914 178.79266167 131.86124039 C176.14857618 133.8051735 173.40119119 135.50319927 170.59790802 137.20818996 C169.70023712 137.76885159 168.80256622 138.32951321 167.87769318 138.90716457 C166.98485626 139.46412014 166.09201935 140.02107571 165.17212677 140.59490871 C163.12392104 141.87350866 161.07574481 143.15215586 159.02759552 144.43084621 C157.49498077 145.38749172 157.49498077 145.38749172 155.93140411 146.3634634 C152.92288883 148.24288878 149.91631698 150.12538068 146.91040802 152.00897121 C136.48297003 158.54051893 126.03288096 165.0323357 115.54712677 171.46990871 C107.32242627 176.520015 99.12616316 181.60946457 90.97510529 186.7775259 C76.30867425 196.07612771 61.55868415 205.24207838 46.787117 214.3724966 C37.16295395 220.32479386 27.57093197 226.32834054 17.97827911 232.33123684 C12.60665255 235.69197267 7.23302253 239.04950262 1.85962677 242.40740871 C-0.07788214 243.61833196 -2.01538262 244.82926868 -3.95287323 246.04022121 C-4.83845917 246.58839504 -5.7240451 247.13656887 -6.63646698 247.70135403 C-8.25272922 248.72191899 -9.85107521 249.77169969 -11.42552948 250.8556509 C-12.11517792 251.32390285 -12.80482635 251.79215481 -13.51537323 252.27459621 C-14.39322479 252.89503811 -14.39322479 252.89503811 -15.28881073 253.52801418 C-17.9529838 254.61349609 -19.44057072 254.19202522 -22.14037323 253.28240871 C-24.14159393 251.71942043 -24.14159393 251.71942043 -26.06615448 249.71209621 C-26.78093964 248.97990871 -27.49572479 248.24772121 -28.2321701 247.49334621 C-28.96500214 246.72248684 -29.69783417 245.95162746 -30.45287323 245.15740871 C-35.22354672 240.21193843 -40.00921671 235.44038309 -45.22704315 230.96649075 C-48.34762351 228.21980664 -51.23358095 225.2516773 -54.14037323 222.28240871 C-59.48406191 216.8664157 -59.48406191 216.8664157 -65.14037323 211.78240871 C-69.69896272 207.93118656 -73.81139494 203.6357774 -78.00536346 199.39788723 C-81.55495141 195.82542639 -85.17195202 192.43636471 -89.01927948 189.18475246 C-92.61851689 185.95670712 -95.96705534 182.47467162 -99.36547089 179.03777981 C-102.18793713 176.19568471 -105.01621055 173.43250749 -108.07787323 170.84490871 C-111.98307302 167.53668214 -115.54318249 163.9172713 -119.14037323 160.28240871 C-124.48502517 154.86746004 -124.48502517 154.86746004 -130.14037323 149.78240871 C-134.69896272 145.93118656 -138.81139494 141.6357774 -143.00536346 137.39788723 C-146.54507 133.83537147 -150.15036478 130.4535373 -153.98802948 127.21209621 C-159.26477587 122.48122014 -164.1649671 117.32607499 -169.14037323 112.28240871 C-164.40290794 106.90841175 -158.48375682 103.35264541 -152.51537323 99.46990871 C-145.49230876 94.87722888 -138.58099702 90.20298189 -131.82006073 85.23138332 C-127.43425302 82.04152336 -122.94376893 79.00912825 -118.45287323 75.96990871 C-116.51911398 74.65635024 -114.58552128 73.34254654 -112.65209198 72.02850246 C-111.71413788 71.39154446 -110.77618378 70.75458645 -109.80980682 70.09832668 C-106.12006095 67.58832761 -102.44097819 65.06305464 -98.76537323 62.53240871 C-98.12897919 62.09436916 -97.49258514 61.65632961 -96.83690643 61.20501614 C-95.57241571 60.33445481 -94.30801041 59.46376938 -93.04369354 58.59295559 C-89.74390367 56.3208581 -86.44200422 54.05182958 -83.14037323 51.78240871 C-81.80703041 50.86575585 -80.47369706 49.94908921 -79.14037323 49.03240871 C-65.8070399 39.86574205 -52.47370656 30.69907538 -39.14037323 21.53240871 C-38.14880219 20.85069607 -38.14880219 20.85069607 -37.1371994 20.15521145 C-35.81446452 19.24584133 -34.49171086 18.33649852 -33.16893768 17.4271841 C-29.6732872 15.02411318 -26.17804018 12.62045808 -22.68334198 10.21600246 C-21.95437714 9.71455715 -21.22541229 9.21311184 -20.4743576 8.69647121 C-19.07580004 7.73440614 -17.67735682 6.77217483 -16.2790451 5.80975246 C-10.39109839 1.7599058 -7.13746394 -0.01388738 0 0 Z " fill="#0A659A" transform="translate(170.14037322998047,56.717591285705566)"/>
<path d="M0 0 C0 102.96 0 205.92 0 312 C-4.53056929 308.1166549 -8.79659253 304.30841546 -12.9375 300.0625 C-16.15927879 296.79692811 -19.36848519 293.58857058 -22.875 290.625 C-26.79832308 287.29263772 -30.38208911 283.6558494 -34 280 C-38.1664645 275.78989047 -42.35285406 271.72758786 -46.87890625 267.90234375 C-50.47814366 264.67429841 -53.82668211 261.1922629 -57.22509766 257.75537109 C-60.0475639 254.913276 -62.87583732 252.15009878 -65.9375 249.5625 C-69.84269979 246.25427342 -73.40280926 242.63486259 -77 239 C-82.34465194 233.58505132 -82.34465194 233.58505132 -88 228.5 C-92.55858949 224.64877784 -96.67102171 220.35336869 -100.86499023 216.11547852 C-104.41457818 212.54301767 -108.03157879 209.15395599 -111.87890625 205.90234375 C-115.47814366 202.67429841 -118.82668211 199.1922629 -122.22509766 195.75537109 C-125.0475639 192.913276 -127.87583732 190.15009878 -130.9375 187.5625 C-134.84269979 184.25427342 -138.40280926 180.63486259 -142 177 C-147.34465194 171.58505132 -147.34465194 171.58505132 -153 166.5 C-157.55858949 162.64877784 -161.67102171 158.35336869 -165.86499023 154.11547852 C-169.41196903 150.54564363 -173.02527263 147.15792311 -176.87109375 143.91015625 C-180.48638528 140.66634421 -183.86309603 137.17694126 -187.25805664 133.70483398 C-189.87056922 131.05069412 -192.4892887 128.55558778 -195.3984375 126.2265625 C-196.25695312 125.49179687 -197.11546875 124.75703125 -198 124 C-198 123.34 -198 122.68 -198 122 C-196.51318359 120.89355469 -196.51318359 120.89355469 -194.3984375 119.671875 C-193.60985352 119.20934326 -192.82126953 118.74681152 -192.00878906 118.27026367 C-191.13963867 117.76857666 -190.27048828 117.26688965 -189.375 116.75 C-181.91127279 112.36008311 -174.53920344 107.86162411 -167.25 103.1875 C-150.0699328 92.1928646 -132.74300213 81.44093637 -115.36035156 70.77001953 C-108.29228067 66.42590215 -101.26326506 62.02578714 -94.26049805 57.57739258 C-87.54557731 53.32181961 -80.77578909 49.15780396 -74 45 C-65.67480587 39.8903475 -57.37669652 34.74389916 -49.12768555 29.51220703 C-41.68619798 24.79344813 -34.21604536 20.12109398 -26.73925781 15.45849609 C-22.14665209 12.59426633 -17.5577771 9.72520795 -12.98828125 6.82421875 C-12.24280029 6.35258301 -11.49731934 5.88094727 -10.72924805 5.39501953 C-9.36510349 4.5311721 -8.00314046 3.6638662 -6.64379883 2.79248047 C-2.22387664 0 -2.22387664 0 0 0 Z " fill="#0093DD" transform="translate(388,226)"/>
<path d="M0 0 C3.91257443 1.56502977 6.97351055 3.08467277 10.5078125 5.2734375 C12.09650146 6.25389038 12.09650146 6.25389038 13.71728516 7.25415039 C14.85328261 7.9609516 15.98918537 8.66790504 17.125 9.375 C18.30372342 10.10497905 19.48259871 10.83471292 20.66162109 11.56420898 C28.86800311 16.64797843 37.03839758 21.78818123 45.19140625 26.95703125 C59.16348036 35.81018983 73.2167234 44.53295965 87.3125 53.1875 C95.53718192 58.23763724 103.73346312 63.32705555 111.88452148 68.49511719 C126.54061429 77.7871645 141.27860307 86.94952213 156.04174805 96.0703125 C163.93293766 100.94902006 171.79823299 105.86884163 179.65625 110.80078125 C185.72905427 114.60562989 191.84029945 118.33745264 198 122 C196.18844623 125.94567024 193.89698205 128.11447253 190.625 131 C186.19350635 134.95678708 181.91802184 139.01659219 177.75 143.25 C174.61334441 146.4276707 171.4684948 149.54561763 168.0625 152.4375 C164.34042282 155.60010003 160.93134196 159.02970978 157.5 162.5 C154.10994146 165.92845105 150.74805992 169.32260742 147.0625 172.4375 C143.15730044 175.74572637 139.59718832 179.36513493 136 183 C131.83353306 187.21010629 127.64714598 191.2724121 123.12109375 195.09765625 C120.12860779 197.78152487 117.32566741 200.64234089 114.5 203.5 C111.10993619 206.92844551 107.74806043 210.32260699 104.0625 213.4375 C100.15730021 216.74572658 96.59719074 220.36513741 93 224 C88.8549191 228.18844516 84.69083638 232.2267072 80.1875 236.03125 C76.34703363 239.48766973 72.76845378 243.21302595 69.13500977 246.88452148 C65.58542182 250.45698233 61.96842121 253.84604401 58.12109375 257.09765625 C55.12860779 259.78152487 52.32566741 262.64234089 49.5 265.5 C46.10993619 268.92844551 42.74806043 272.32260699 39.0625 275.4375 C34.48726965 279.31333208 30.35158442 283.62375615 26.13745117 287.88208008 C22.57475537 291.46775175 18.94777393 294.87736708 15.08203125 298.13671875 C11.55087602 301.2968708 8.25845618 304.70259167 4.94677734 308.09033203 C3.64835105 309.41065848 2.3262886 310.70766439 1 312 C0.67 312 0.34 312 0 312 C0 209.04 0 106.08 0 0 Z " fill="#0093DD" transform="translate(437,226)"/>
</svg>
